<?xml version="1.0" encoding="UTF-8"?>
<svg xmlns="http://www.w3.org/2000/svg" xmlns:xlink="http://www.w3.org/1999/xlink" width="150px" height="150px" viewBox="0 0 150 150" version="1.1">
<g id="surface1">
<path style=" stroke:none;fill-rule:nonzero;fill:rgb(100%,100%,100%);fill-opacity:1;" d="M 142.535156 75.019531 C 142.535156 112.308594 112.308594 142.535156 75.019531 142.535156 C 37.730469 142.535156 7.5 112.308594 7.5 75.019531 C 7.5 37.730469 37.730469 7.5 75.019531 7.5 C 112.308594 7.5 142.535156 37.730469 142.535156 75.019531 "/>
<path style=" stroke:none;fill-rule:nonzero;fill:rgb(4.313725%,4.705882%,4.313725%);fill-opacity:1;" d="M 30.648438 75.234375 C 30.648438 99.835938 50.664062 119.855469 75.269531 119.855469 C 99.875 119.855469 119.894531 99.835938 119.894531 75.234375 C 119.894531 50.628906 99.875 30.609375 75.269531 30.609375 C 50.664062 30.609375 30.648438 50.628906 30.648438 75.234375 Z M 32.117188 75.234375 C 32.117188 51.4375 51.476562 32.078125 75.269531 32.078125 C 99.066406 32.078125 118.425781 51.4375 118.425781 75.234375 C 118.425781 99.027344 99.066406 118.386719 75.269531 118.386719 C 51.476562 118.386719 32.117188 99.027344 32.117188 75.234375 "/>
<path style=" stroke:none;fill-rule:nonzero;fill:rgb(16.078431%,36.078431%,63.921569%);fill-opacity:1;" d="M 102.75 25.765625 C 101.007812 25.046875 100.199219 24.246094 98.457031 23.527344 C 96.445312 22.699219 95.238281 22.253906 93.558594 20.847656 C 92.511719 19.972656 91.773438 19.546875 91.078125 18.363281 C 95.101562 20.039062 97.808594 19.773438 101.765625 21.738281 C 103.890625 22.789062 104.429688 24.246094 105.878906 26.121094 C 106.328125 26.726562 106.664062 27.039062 107.019531 27.710938 C 105.679688 26.433594 104.449219 26.457031 102.75 25.765625 Z M 99.472656 32.347656 C 96.589844 32.347656 94.957031 31.542969 92.296875 30.382812 C 90.90625 29.777344 90.058594 29.621094 88.648438 29.0625 L 89.1875 28.792969 C 90.886719 28.769531 91.871094 28.703125 93.570312 28.703125 C 96.386719 28.703125 97.953125 29.238281 100.679688 30.023438 C 102.445312 30.535156 104.324219 31.441406 106.113281 31.886719 C 104.011719 31.953125 101.574219 32.347656 99.472656 32.347656 Z M 59.480469 30.148438 C 58.855469 30.394531 58.519531 30.75 57.871094 30.953125 C 55.703125 31.625 54.339844 31.734375 52.058594 31.734375 C 49.21875 31.734375 47.609375 31.800781 44.769531 31.824219 C 44.480469 31.734375 43.898438 31.847656 43.988281 31.554688 C 44.054688 31.308594 44.390625 31.332031 44.613281 31.21875 C 45.039062 31.019531 45.308594 30.863281 45.753906 30.683594 C 47.25 30.035156 48.191406 29.699219 49.777344 29.429688 C 52.640625 28.9375 54.316406 28.804688 57.222656 28.804688 C 58.878906 28.804688 61.058594 28.484375 62.714844 28.484375 C 62.222656 29.222656 60.332031 29.8125 59.480469 30.148438 Z M 45.128906 24.585938 C 45.734375 23.984375 45.957031 23.492188 46.5625 22.886719 C 48.328125 21.121094 49.757812 20.472656 52.171875 19.78125 C 55.125 18.929688 56.914062 18.996094 59.664062 17.632812 C 57.875 19.421875 56.824219 20.472656 54.675781 21.816406 C 53.558594 22.507812 52.820312 22.753906 51.636719 23.335938 C 50.140625 24.074219 49.378906 24.675781 47.8125 25.210938 C 45.914062 25.863281 44.863281 26.308594 43.007812 27.066406 C 43.652344 25.972656 44.234375 25.480469 45.128906 24.585938 Z M 115.488281 35.277344 C 115.773438 34.996094 116.050781 34.671875 116.269531 34.34375 L 116.273438 34.34375 C 116.546875 33.941406 116.730469 33.546875 116.730469 33.242188 C 116.730469 31.960938 115.535156 31.121094 114.34375 31.121094 C 113.902344 31.121094 113.246094 31.308594 112.964844 31.480469 C 111.578125 27.625 107.390625 21.488281 102.730469 18.996094 C 98.714844 16.855469 93.75 16.382812 89.824219 15.519531 C 87.550781 15.015625 84.042969 12.761719 83.605469 12.773438 L 82.847656 12.773438 L 82.847656 13.390625 C 83.1875 14.8125 85.625 15.566406 86.308594 16.605469 C 86.816406 17.421875 87.207031 18.496094 87.980469 19.203125 C 89.28125 20.394531 91 21.34375 92.039062 22.316406 C 96.542969 26.484375 101.761719 26.671875 105.789062 29.058594 C 99.421875 27.746094 99.027344 26.707031 94.042969 26.707031 C 92.5625 26.707031 91.378906 26.753906 89.710938 26.589844 C 89.867188 26.507812 90.066406 26.445312 90.042969 26.328125 C 91.746094 26.355469 93.359375 26.175781 94.835938 25.742188 C 93.183594 25.125 91.515625 24.992188 90.015625 24.355469 C 89.019531 23.933594 88.257812 23.023438 87.507812 23.042969 C 85.453125 23.109375 82.445312 21.453125 80.707031 20.113281 L 82.558594 20 C 84.953125 20.460938 87.628906 21.453125 89.882812 21.710938 C 88.160156 20.195312 85.988281 19.066406 85.785156 17.007812 C 85 17.359375 84.15625 18.058594 83.710938 18.058594 C 83.273438 18.058594 83.089844 17.75 80.96875 17.878906 C 80.242188 17.925781 79.410156 18.410156 78.679688 18.410156 C 73.03125 18.566406 72.855469 18.585938 72.414062 18.585938 C 71.972656 18.585938 70.742188 17.96875 70.035156 17.925781 C 68.800781 17.8125 67.390625 18.101562 66.152344 17.992188 C 65.558594 17.949219 64.949219 17.183594 64.511719 17.011719 C 64.425781 19.335938 61.496094 20.683594 60.414062 21.707031 C 63.144531 21.808594 65.792969 20 68.441406 20 C 68.882812 20 69.285156 19.988281 69.589844 20.101562 C 67.300781 22.117188 64.777344 22.519531 62.238281 23.222656 C 59.988281 23.84375 57.613281 25.140625 55.644531 25.542969 C 57.003906 26.558594 59.378906 25.914062 60.410156 26.785156 C 60.101562 26.894531 59.785156 26.464844 52.902344 26.707031 C 51.027344 26.773438 45.378906 29.179688 44.785156 29.179688 C 44.34375 29.179688 44.519531 29.089844 44.519531 29.089844 C 50.34375 26.011719 57.03125 25.289062 62.96875 18.558594 C 63.5 17.960938 63.648438 16.90625 64.265625 16.265625 C 64.730469 15.777344 67.46875 14.347656 67.457031 13.355469 L 67.457031 12.777344 L 66.695312 12.777344 C 66.257812 12.761719 63.207031 14.617188 61.527344 15.171875 C 60.027344 15.65625 58.394531 15.984375 56.785156 16.050781 C 50.960938 16.292969 41.300781 21.820312 38.457031 29.234375 C 38.101562 30.164062 37.835938 30.972656 37.347656 31.476562 C 36.867188 31.300781 36.398438 31.121094 35.957031 31.121094 C 35.273438 31.121094 33.574219 31.652344 33.574219 33.0625 C 33.574219 33.113281 33.871094 33.769531 34.1875 34.34375 L 34.183594 34.34375 C 34.402344 34.738281 34.632812 35.109375 34.808594 35.273438 C 33.308594 36.910156 32.390625 38.957031 31.660156 40.457031 C 32.480469 39.929688 33.164062 39.941406 33.832031 39.679688 C 34.207031 38.769531 34.808594 37.464844 35.945312 36.769531 C 36.554688 37.40625 37.390625 38.007812 37.722656 38.007812 C 40.488281 38.007812 38.621094 35.5 39.550781 34.339844 C 39.832031 33.996094 40.359375 33.769531 41.339844 33.769531 L 49.460938 34.121094 C 54.980469 34.121094 60.328125 33.15625 66.550781 28.5 C 67.105469 28.082031 67.960938 28.378906 68.46875 28.226562 C 69.550781 27.875 70.585938 27.410156 71.707031 26.984375 C 71.136719 26.546875 70.414062 26.046875 69.859375 26.003906 C 66.683594 25.714844 65.261719 25.648438 64.109375 25.703125 C 64.796875 25.09375 65.269531 24.472656 65.824219 24.273438 C 68.25 23.390625 74.441406 19.292969 75.148438 19.292969 C 75.371094 19.292969 84.726562 24.273438 86.015625 25.699219 C 84.332031 25.648438 83.265625 25.847656 80.441406 26.003906 C 79.914062 26.023438 79.046875 26.640625 78.777344 27.183594 C 80.070312 27.585938 81.304688 28.003906 82.539062 28.402344 C 82.867188 28.511719 83.496094 28.273438 83.742188 28.492188 C 85.773438 30.414062 93.113281 33.945312 95.828125 33.945312 L 107.789062 33.945312 C 107.828125 33.945312 110.371094 33.257812 110.847656 34.339844 L 110.851562 34.339844 C 110.894531 34.449219 110.902344 34.59375 110.902344 34.742188 C 110.902344 35.691406 110.28125 38.007812 112.578125 38.007812 C 113.175781 38.007812 114.085938 37 114.355469 36.59375 C 115.613281 37.632812 116.003906 38.652344 116.402344 39.746094 C 117.140625 39.988281 117.808594 39.628906 118.628906 40.464844 C 118 38.636719 116.554688 36.832031 115.488281 35.277344 "/>
<path style=" stroke:none;fill-rule:evenodd;fill:rgb(16.078431%,36.078431%,63.921569%);fill-opacity:1;" d="M 118.730469 28.125 C 124.695312 35.433594 131.910156 43.855469 131.910156 51.6875 C 131.910156 53.453125 132.085938 54.074219 132.085938 54.511719 C 132.085938 55.660156 131.027344 59.984375 131.027344 60.339844 C 131.027344 60.871094 133.324219 61.265625 133.324219 62.722656 C 133.324219 63.695312 132.207031 64.152344 131.359375 64.503906 C 131.199219 65.128906 130.5 66.253906 130.5 66.695312 C 130.5 67.136719 131.027344 68.195312 131.027344 68.636719 C 131.027344 69.078125 129.953125 71.160156 128.976562 72.429688 C 128.730469 70.589844 128.910156 68.824219 128.75 67.101562 C 127.390625 66.445312 126.085938 66.1875 126.085938 64.929688 C 126.085938 64.488281 127.496094 61.753906 127.496094 61.3125 C 127.496094 60.183594 122.109375 55.425781 121.707031 55.160156 C 118.796875 53.21875 113.957031 49.351562 112.015625 46.085938 C 110.847656 44.097656 110.601562 41.449219 108.285156 39.441406 C 107.777344 39 106.3125 38.867188 106.144531 38.058594 C 106.535156 37.839844 107.191406 37.65625 107.636719 37.65625 C 110.96875 37.65625 116.667969 40.496094 119.269531 42.304688 C 125.691406 46.78125 128.90625 53.257812 130.066406 58.664062 C 130.15625 58.359375 130.5 57.957031 130.5 57.515625 C 130.5 57.074219 128.933594 53.511719 128.601562 51.527344 C 127.742188 46.40625 125.953125 40.734375 121.402344 35.359375 C 121.292969 35.511719 121.316406 35.269531 121.316406 35.710938 C 121.316406 38.316406 124.664062 43.617188 125.527344 45.492188 L 125.527344 46.121094 C 123.660156 45.144531 119.089844 41.902344 119.308594 39.675781 C 119.332031 39.34375 118.804688 39.179688 118.714844 38.824219 C 118.472656 37.964844 118.140625 36.242188 118.140625 35.800781 C 118.140625 35.359375 118.316406 33.851562 118.730469 28.125 Z M 126.105469 55.902344 C 125.277344 52.59375 124.160156 50.808594 121.921875 48.234375 C 120.519531 46.605469 119.734375 45.664062 117.902344 44.503906 C 116.265625 43.472656 115.351562 42.847656 113.628906 41.996094 C 113.628906 42.175781 113.898438 43.183594 114.167969 43.609375 C 114.546875 44.1875 114.746094 44.613281 115.148438 45.195312 C 116.402344 47.003906 117.320312 47.832031 118.882812 49.398438 C 121.410156 51.925781 126.105469 55.902344 126.105469 55.902344 "/>
<path style=" stroke:none;fill-rule:evenodd;fill:rgb(16.078431%,36.078431%,63.921569%);fill-opacity:1;" d="M 31.570312 28.300781 L 31.984375 35.445312 C 31.984375 39.773438 30.464844 42.582031 24.777344 46.105469 C 26.167969 42.824219 27.753906 39.476562 28.925781 36.144531 L 28.925781 35.355469 C 27.15625 37.621094 25.265625 40.714844 24.140625 43.011719 C 23.191406 44.953125 22.691406 47.5625 22.207031 49.417969 C 21.609375 51.691406 19.980469 55.859375 19.96875 56.300781 L 19.96875 58.335938 C 20.066406 58.308594 20.128906 58.511719 20.222656 58.664062 C 20.953125 55.597656 22.527344 52.265625 24.160156 49.351562 C 25.441406 47.054688 28.757812 43.9375 31.316406 42.128906 C 33.414062 40.648438 39.332031 37.65625 42.136719 37.65625 C 42.578125 37.65625 43.570312 37.832031 44.34375 38.09375 C 40.015625 39.242188 39.867188 44.152344 37.726562 46.910156 C 36.292969 48.765625 34.074219 50.917969 32.128906 52.570312 C 31.800781 52.859375 22.804688 59.324219 22.804688 61.3125 C 22.804688 61.574219 23.347656 63.320312 24.132812 64.039062 C 24.207031 64.183594 24.214844 64.488281 24.214844 64.929688 C 24.214844 65.964844 23.757812 66.785156 21.703125 66.945312 C 21.601562 67.136719 21.214844 68.628906 21.519531 72.601562 C 21.109375 72.273438 19.449219 68.4375 19.449219 68.195312 C 19.449219 67.753906 19.804688 67.046875 19.804688 66.605469 C 19.804688 64.335938 16.976562 64.3125 16.976562 62.546875 C 16.976562 61.199219 18.761719 60.90625 19.457031 60.488281 C 18.21875 56.882812 18.390625 56.984375 18.390625 54.25 C 18.390625 44.164062 22.292969 39.339844 31.570312 28.300781 Z M 23.851562 55.46875 L 23.648438 56.777344 C 25.851562 55.382812 27.222656 53.433594 29.0625 51.59375 C 31.738281 48.917969 33.777344 48.097656 35.867188 45.003906 C 36.453125 44.140625 37.273438 42.574219 37.746094 41.625 C 34.457031 43.800781 31.96875 44.730469 29.265625 47.601562 C 28.261719 48.660156 27.722656 49.414062 26.691406 50.445312 C 25.269531 51.863281 24.4375 53.546875 23.851562 55.46875 "/>
<path style=" stroke:none;fill-rule:evenodd;fill:rgb(16.078431%,36.078431%,63.921569%);fill-opacity:1;" d="M 21.324219 78.4375 C 21.417969 78.285156 21.390625 77.992188 21.394531 75.691406 C 22.164062 70.875 24.03125 66.738281 26.921875 62.058594 C 27.539062 61.042969 28.707031 60.1875 29.667969 60.105469 C 29.15625 62.128906 28.453125 64.664062 28.453125 65.105469 C 28.453125 65.546875 29.226562 68.453125 29.335938 70.222656 C 29.554688 73.222656 29.511719 74.199219 29.511719 74.640625 C 29.511719 79.296875 24.433594 89.472656 24.890625 91.832031 C 23.367188 91.296875 23.511719 88.808594 23.511719 87.703125 C 23.511719 82.78125 25.699219 75.679688 26.804688 70.574219 L 26.804688 68.898438 C 24.476562 71.28125 24.875 74.667969 24.144531 76.894531 C 23.859375 77.800781 23.703125 78.933594 23.261719 79.972656 C 23.015625 80.5 22.453125 81.085938 22.453125 81.527344 C 22.453125 81.96875 22.980469 84.527344 22.980469 84.96875 C 22.980469 85.410156 22.628906 87.351562 22.628906 87.792969 C 22.628906 88.234375 23.332031 91.21875 23.640625 93.101562 C 25.089844 92.519531 26.863281 93.992188 26.863281 95.382812 C 26.863281 95.824219 25.980469 96.882812 25.980469 97.324219 C 25.980469 97.769531 27.386719 100.207031 27.890625 101.71875 C 26.726562 101.019531 25.675781 100.492188 24.621094 99.917969 C 25.988281 96.300781 20.332031 97.457031 20.332031 95.03125 C 20.332031 94.28125 21.480469 93.5 22.101562 93.160156 C 15.496094 84.890625 12.742188 78.039062 12.742188 70.492188 C 12.742188 70.050781 13.09375 66.253906 13.09375 65.8125 C 13.09375 64.84375 12.035156 60.761719 12.035156 60.429688 C 12.035156 59.613281 13.410156 61.019531 14.710938 63.113281 C 16.058594 64.878906 18.1875 66.738281 18.675781 68.4375 C 19.667969 71.835938 20.328125 75.144531 21.324219 78.4375 Z M 20.269531 85.484375 C 20.15625 82.910156 20.113281 81.742188 19.285156 79.257812 C 18.90625 78.117188 18.503906 77.179688 18.210938 76.039062 C 17.339844 72.6875 17.339844 70.570312 15.460938 67.597656 L 15.285156 67.238281 C 15.21875 67.707031 15.011719 69.328125 15.011719 69.796875 C 15.011719 72.636719 15.328125 72.871094 15.328125 75.710938 C 15.328125 78.285156 16.179688 79.78125 17.609375 81.925781 C 18.503906 83.289062 18.996094 84.5 20.269531 85.484375 "/>
<path style=" stroke:none;fill-rule:evenodd;fill:rgb(16.078431%,36.078431%,63.921569%);fill-opacity:1;" d="M 120.726562 60.082031 C 121.671875 60.550781 123.050781 61.292969 123.535156 62.242188 C 125.875 66.699219 128.136719 71.09375 128.960938 75.511719 L 128.960938 78.4375 C 130.460938 74.695312 130.164062 69.820312 132.921875 66.289062 C 133.71875 65.273438 134.792969 64.171875 135.566406 63.113281 C 136.164062 62.296875 136.730469 60.273438 138.066406 60.101562 C 137.554688 62.476562 137.207031 65.105469 137.207031 65.546875 C 137.207031 65.988281 137.558594 69.875 137.558594 70.316406 C 137.558594 78.566406 134.363281 85.15625 128.203125 93.171875 C 128.925781 93.867188 129.96875 94.480469 129.96875 95.121094 C 129.96875 96.753906 126.503906 97.558594 126.214844 97.710938 C 125.398438 98.175781 125.75 99.371094 125.648438 99.941406 C 124.796875 100.320312 123.75 100.839844 122.589844 101.546875 C 122.910156 100.042969 124.316406 97.769531 124.316406 97.324219 C 124.316406 96.882812 123.4375 95.824219 123.4375 95.382812 C 123.4375 94.789062 124.066406 93.265625 125.101562 93.132812 C 125.457031 93.089844 125.984375 93.089844 126.476562 93.039062 C 126.511719 92.9375 127.671875 88.453125 127.671875 87.703125 C 127.671875 87.261719 127.320312 85.410156 127.320312 84.96875 C 127.320312 84.527344 127.851562 81.96875 127.851562 81.527344 C 127.851562 81.085938 127.191406 80.515625 127.015625 79.964844 C 126.507812 78.417969 126.285156 76.75 126.019531 75.183594 C 125.976562 74.851562 125.957031 74.464844 125.84375 74.136719 C 125.800781 73.960938 125.777344 73.585938 125.667969 73.253906 C 125.625 73.078125 125.578125 72.695312 125.492188 72.367188 C 125.273438 71.4375 124.472656 70.042969 123.535156 68.902344 C 123.425781 69.207031 123.4375 69.519531 123.4375 69.960938 C 123.4375 73.910156 126.789062 81.722656 126.789062 87.792969 C 126.789062 89.203125 126.980469 90.398438 125.4375 91.671875 C 124.847656 89.136719 124.480469 86.367188 123.554688 84.027344 C 122.292969 80.851562 120.789062 77.398438 120.789062 74.109375 C 120.789062 73.667969 120.765625 72.691406 120.964844 70.394531 C 121.097656 68.808594 121.847656 65.902344 121.847656 65.460938 C 121.847656 64.203125 121.28125 62.449219 120.726562 60.878906 Z M 129.933594 84.964844 C 131.050781 83.355469 132.148438 82.328125 132.863281 80.515625 C 133.289062 79.441406 133.398438 78.769531 133.757812 77.652344 C 134.023438 76.78125 134.335938 76.3125 134.472656 75.417969 C 134.808594 73.359375 134.941406 72.175781 134.941406 70.097656 L 134.941406 67.46875 L 135.007812 67.234375 L 134.941406 66.878906 L 134.941406 67.46875 L 129.933594 84.964844 "/>
<path style=" stroke:none;fill-rule:nonzero;fill:rgb(16.078431%,36.078431%,63.921569%);fill-opacity:1;" d="M 121.558594 87.089844 C 122.882812 88.324219 122.730469 91.035156 122.730469 92.382812 C 122.730469 99.355469 119.503906 109.285156 113.355469 115.195312 C 119.421875 111.902344 126.519531 104.996094 131.308594 98.527344 C 127.351562 100.058594 123.589844 106.582031 119.578125 108.601562 C 120.265625 106.910156 121 105.023438 122.082031 103.367188 C 122.503906 102.730469 133.34375 94.679688 135.023438 94.699219 L 136.136719 94.699219 C 132.230469 102.132812 124.789062 113.828125 115.433594 117.378906 C 113.714844 118.019531 111.730469 118.679688 109.988281 119.414062 C 109.742188 119.917969 109.726562 120.820312 109.589844 121.105469 C 109.261719 121.902344 107.878906 122.570312 107.457031 122.570312 C 107.015625 122.570312 105.960938 121.691406 105.515625 121.691406 C 105.078125 121.691406 101.191406 123.277344 100.75 123.277344 C 100.308594 123.277344 100.179688 123.09375 99.796875 122.882812 L 99.796875 122.253906 C 101.066406 121.695312 102.46875 120.820312 103.84375 119.988281 C 103.671875 119.699219 103.488281 119.304688 103.488281 118.863281 C 103.488281 117.320312 104.722656 116.570312 105.78125 116.570312 C 106.488281 116.570312 106.980469 116.496094 107.46875 117.277344 C 107.925781 116.773438 108.792969 115.816406 109.523438 115.222656 C 109.808594 114.976562 110.332031 115.183594 110.578125 114.9375 C 115.738281 109.972656 117.242188 104.355469 119.316406 99.324219 C 120 97.644531 120.4375 95.800781 120.964844 94.066406 C 120.964844 94.066406 120.988281 93.945312 120.886719 93.792969 C 116.980469 99.957031 114.820312 106.722656 111.53125 113.167969 C 111.332031 113.542969 110.675781 114.089844 109.882812 114.4375 C 109.84375 114.1875 109.664062 114.097656 109.664062 113.65625 C 109.664062 113.214844 110.546875 111.707031 110.65625 110.644531 C 111.363281 103.652344 115.976562 96.785156 119.328125 92.769531 C 120.523438 91.332031 121.054688 88.964844 121.558594 87.089844 "/>
<path style=" stroke:none;fill-rule:nonzero;fill:rgb(16.078431%,36.078431%,63.921569%);fill-opacity:1;" d="M 28.738281 87.265625 C 29.222656 88.625 29.394531 91.148438 30.585938 92.230469 C 34.648438 95.890625 35.546875 99.136719 37.734375 103.066406 C 38.703125 104.785156 38.824219 107.128906 39.265625 109.222656 C 39.507812 110.4375 40.636719 112.707031 40.632812 113.148438 L 40.632812 114.046875 L 40.199219 114.449219 C 38.695312 113.667969 38.304688 111.683594 37.753906 110.515625 C 35.257812 105.285156 33.214844 99.320312 29.59375 94.148438 C 29.488281 94.296875 29.511719 94.058594 29.511719 94.5 C 29.511719 94.945312 31.316406 100.09375 32.375 102.675781 C 33.742188 106.054688 35.1875 109.410156 37.726562 112.585938 C 39.335938 114.617188 40.519531 114.917969 42.84375 117.277344 C 43.617188 116.484375 44.078125 116.570312 44.519531 116.570312 C 46.0625 116.570312 46.816406 117.78125 46.816406 118.953125 C 46.816406 119.390625 46.628906 119.699219 46.457031 119.988281 C 47.832031 120.820312 49.238281 121.699219 50.695312 122.457031 C 50.511719 122.875 49.992188 123.277344 49.550781 123.277344 C 49.109375 123.277344 45.136719 121.691406 44.695312 121.691406 C 44.253906 121.691406 43.28125 122.570312 42.84375 122.570312 C 41.605469 122.570312 40.046875 121.039062 40.644531 119.695312 C 35.019531 117.535156 29.429688 114.757812 24.175781 109.480469 C 19.476562 104.738281 17.703125 99.695312 13.988281 94.726562 C 14.242188 94.679688 14.066406 94.5 14.507812 94.5 C 17.441406 94.5 27.242188 102.082031 28.082031 103.1875 C 29.164062 104.621094 29.679688 106.375 30.542969 107.984375 L 30.542969 108.617188 C 26.460938 105.628906 23.683594 100.167969 18.90625 98.699219 C 23.753906 104.152344 30.691406 112.492188 37.292969 115.023438 C 30.050781 108.425781 28.941406 101.667969 27.570312 94.953125 C 27.570312 92.292969 27.394531 92.207031 27.394531 91.765625 C 27.394531 90.816406 28.015625 87.976562 28.738281 87.265625 "/>
<path style=" stroke:none;fill-rule:evenodd;fill:rgb(16.078431%,36.078431%,63.921569%);fill-opacity:1;" d="M 43.46875 112.007812 L 44.113281 112.007812 C 52.390625 119.484375 61.46875 116.601562 69.695312 126.28125 C 69.992188 126.109375 70.128906 125.546875 70.679688 125.109375 C 70.988281 124.863281 71.53125 124.867188 71.972656 124.867188 C 73.164062 124.867188 74.355469 125.660156 74.355469 127.074219 C 74.355469 127.515625 73.976562 128.371094 73.472656 128.847656 C 73.8125 129.320312 74.707031 130.339844 75.148438 130.339844 C 75.589844 130.339844 76.324219 129.484375 76.828125 129.007812 C 76.316406 128.363281 75.945312 127.25 75.945312 126.808594 C 75.945312 125.53125 77.644531 124.691406 78.328125 124.691406 C 78.792969 124.691406 79.960938 125.515625 80.464844 126.105469 C 82.832031 124.746094 86.109375 121.097656 88.535156 120.148438 C 90.832031 119.269531 93.109375 118.230469 95.425781 117.5 C 98.691406 116.464844 102.824219 115.851562 106.1875 112.011719 L 106.835938 112.011719 C 104.347656 114.992188 100.089844 123.453125 95.363281 123.453125 C 94.921875 123.453125 94.367188 123.449219 93.777344 123.183594 C 95.21875 122.859375 98.125 121.601562 98.753906 119.199219 C 96.90625 120.265625 95.003906 121.503906 93.015625 122.320312 C 89.375 123.84375 85.625 124.671875 81.949219 127.78125 C 82.097656 127.894531 81.949219 128.042969 82.390625 128.042969 C 82.832031 128.042969 85.871094 126.480469 87.664062 125.972656 C 90.574219 125.15625 94.402344 124.582031 97.386719 124.160156 L 101.628906 123.984375 C 107.472656 123.542969 114.074219 123.117188 118.464844 120.289062 L 118.464844 120.929688 C 113.660156 126.097656 105.648438 131.753906 100.023438 131.753906 L 87.886719 131.753906 C 87.441406 131.753906 84.824219 131.421875 83.433594 131.15625 C 82.769531 131.046875 81.21875 130.375 80.601562 129.632812 C 79.421875 130.15625 78.195312 130.679688 77.003906 131.3125 C 79.699219 132.867188 83.175781 134.710938 85.117188 136.644531 C 83.792969 136.5625 82.605469 137.480469 81.308594 138.105469 C 80.398438 136.992188 80.339844 135.160156 78.460938 134.082031 C 77.492188 133.527344 75.589844 132.457031 75.148438 132.457031 C 74.578125 132.457031 70.546875 135.265625 70.324219 135.597656 C 69.882812 136.257812 69.582031 137.167969 69.328125 137.898438 C 69.328125 137.898438 69.410156 138.105469 68.972656 138.105469 C 68 138.105469 67.199219 136.851562 65.179688 136.632812 C 67.367188 134.597656 71.601562 132.160156 73.296875 131.3125 C 72.285156 130.859375 70.296875 129.808594 69.851562 129.808594 C 69.410156 129.808594 68.285156 130.757812 67.40625 130.976562 C 65.660156 131.441406 63.683594 131.574219 61.914062 131.753906 L 52.90625 131.929688 C 46.15625 132.238281 38.03125 127.511719 31.835938 120.925781 L 31.835938 120.285156 C 36.582031 123.492188 40.410156 122.792969 44.441406 123.632812 L 48.851562 123.808594 C 54.984375 124.226562 61.96875 125.140625 68.074219 128.046875 L 68.355469 127.777344 C 62.734375 123.035156 57.085938 123.5 51.511719 119.039062 C 51.511719 119.039062 51.40625 118.863281 51.40625 119.304688 C 51.40625 120.34375 55.03125 122.96875 56.523438 123.179688 C 55.933594 123.449219 55.375 123.453125 54.933594 123.453125 C 50.5 123.453125 46.214844 115.78125 43.46875 112.007812 Z M 92.203125 127.683594 C 90.546875 128.128906 84.9375 128.910156 84.9375 128.910156 C 86.210938 129.226562 86.992188 129.425781 88.3125 129.425781 C 89.429688 129.425781 94.78125 130.179688 95.539062 130.179688 C 96.078125 130.179688 98.800781 129.828125 99.335938 129.785156 C 101.125 129.605469 102.265625 129.851562 103.871094 129.066406 C 104.96875 128.53125 105.707031 128.390625 106.757812 127.789062 C 107.808594 127.183594 109.269531 126.023438 110.34375 125.398438 C 109.449219 125.757812 108.109375 126.042969 107.125 126.042969 C 104.332031 126.042969 102.507812 126.429688 99.714844 126.429688 C 96.742188 126.429688 95.085938 126.898438 92.203125 127.683594 Z M 43.597656 125.261719 C 42.277344 125.152344 40.398438 125.351562 40.398438 125.351562 C 43.394531 126.382812 44.773438 127.039062 47.726562 128.15625 C 48.953125 128.625 50.289062 128.789062 51.496094 129.261719 C 53.886719 130.199219 55.222656 129.980469 57.816406 129.980469 C 60.367188 129.980469 62.714844 130.085938 65.105469 128.984375 C 63.082031 128.15625 60.824219 127.878906 58.300781 127.054688 C 56.464844 126.449219 54.554688 126.089844 52.605469 125.957031 C 51.488281 125.886719 50.863281 125.6875 49.746094 125.6875 L 47.109375 125.6875 C 45.71875 125.6875 44.984375 125.398438 43.597656 125.261719 "/>
<path style=" stroke:none;fill-rule:nonzero;fill:rgb(16.078431%,36.078431%,63.921569%);fill-opacity:1;" d="M 115.824219 65.5625 C 115.636719 65.289062 115.589844 65.246094 115.429688 65.328125 C 115.285156 65.398438 114.953125 65.566406 113.738281 65.207031 C 112.363281 64.800781 111.304688 64.207031 110.28125 63.632812 C 108.824219 62.8125 107.445312 62.035156 105.378906 61.949219 C 103.292969 61.863281 101.214844 62.8125 99.546875 63.578125 C 98.402344 64.105469 97.410156 64.5625 96.734375 64.53125 C 95.070312 64.457031 94.457031 63.886719 93.683594 63.164062 C 92.640625 62.195312 91.34375 60.988281 87.050781 60.226562 C 84.742188 59.816406 82.796875 60.039062 80.921875 60.253906 C 79.410156 60.429688 77.980469 60.59375 76.441406 60.425781 L 75.714844 60.355469 C 74.207031 60.214844 73.578125 60.152344 71.335938 58.820312 L 71.246094 58.769531 L 71.257812 58.875 L 71.519531 61.234375 L 71.519531 61.273438 C 71.523438 61.273438 71.558594 61.28125 71.558594 61.28125 L 72.464844 61.472656 C 73.953125 61.789062 75.03125 62.019531 76.785156 62.054688 C 78.273438 62.085938 79.699219 61.949219 81.078125 61.816406 C 83.199219 61.617188 85.207031 61.425781 87.253906 61.832031 C 88.636719 62.105469 89.375 62.59375 90.492188 63.335938 L 90.84375 63.566406 L 93.714844 83.722656 C 92.019531 83.578125 91.019531 83.597656 89.316406 83.804688 C 87.285156 84.046875 85.824219 84.847656 84.414062 85.625 C 83.042969 86.378906 81.617188 87.160156 79.660156 87.433594 C 77.621094 87.71875 76.4375 87.75 74.378906 87.570312 L 74.316406 87.566406 L 74.320312 87.628906 L 74.425781 89.191406 L 74.429688 89.230469 L 74.464844 89.242188 C 78.902344 90.289062 82.035156 88.726562 84.796875 87.347656 C 86.179688 86.660156 87.484375 86.007812 88.796875 85.777344 L 88.800781 85.777344 L 88.804688 85.773438 C 90.101562 85.300781 91.601562 85.316406 93.1875 85.332031 C 95.605469 85.359375 98.101562 85.386719 100.355469 83.75 C 102.3125 82.328125 102.648438 81.710938 103.203125 80.6875 C 103.625 79.910156 104.152344 78.945312 105.570312 77.226562 C 106.5 76.101562 108.625 75.597656 110.179688 75.234375 C 110.949219 75.050781 111.558594 74.90625 111.875 74.734375 C 114.394531 73.34375 116.167969 71.359375 116.628906 69.425781 C 116.941406 68.105469 116.671875 66.804688 115.824219 65.5625 "/>
<path style=" stroke:none;fill-rule:evenodd;fill:rgb(4.313725%,4.705882%,4.313725%);fill-opacity:1;" d="M 75.363281 82.097656 C 76.519531 75.570312 76.699219 72.960938 77.628906 66.945312 C 77.742188 66.226562 77.96875 65.667969 78.453125 65.125 C 79.050781 64.457031 80.671875 64.636719 82.238281 64.664062 C 83.960938 64.695312 86.164062 64.367188 86.515625 65.351562 C 86.617188 65.636719 86.769531 65.941406 86.871094 66.242188 C 88.765625 71.722656 89.367188 75.519531 90.949219 80.050781 C 91.109375 80.503906 91.101562 80.746094 90.949219 81.144531 C 90.660156 81.910156 89.851562 81.859375 89.050781 82.058594 C 88.332031 82.234375 87.828125 82.476562 87.152344 82.164062 C 86.800781 82 86.496094 81.921875 86.378906 81.53125 C 86.027344 80.332031 86.027344 77.804688 85.398438 77.875 C 84.171875 78.011719 80.726562 77.652344 80.480469 78.179688 C 80.109375 78.976562 79.808594 82.222656 79.496094 82.621094 C 79.070312 83.164062 78.480469 83.039062 77.792969 83.105469 C 76.863281 83.199219 75.625 83.214844 75.417969 82.761719 C 75.308594 82.527344 75.304688 82.433594 75.363281 82.097656 Z M 81.214844 69.722656 C 80.96875 70.882812 80.898438 71.234375 80.6875 72.636719 C 80.652344 72.867188 80.734375 72.914062 80.828125 73.0625 C 81.074219 73.449219 81.898438 73.320312 82.585938 73.273438 C 83.21875 73.230469 83.96875 73.488281 84.167969 72.886719 C 84.222656 72.714844 84.226562 72.535156 84.203125 72.425781 C 83.816406 70.847656 84.132812 70.917969 83.429688 69.195312 C 83.230469 68.710938 81.875 68.414062 81.425781 69.054688 C 81.269531 69.277344 81.28125 69.410156 81.214844 69.722656 "/>
<path style=" stroke:none;fill-rule:nonzero;fill:rgb(4.313725%,4.705882%,4.313725%);fill-opacity:1;" d="M 44.59375 96.859375 C 43.972656 97.449219 43.136719 99.265625 43.238281 100.765625 C 43.292969 101.519531 43.570312 102.082031 44.066406 102.4375 C 44.28125 102.589844 44.488281 102.644531 44.703125 102.601562 C 45.265625 102.492188 45.8125 101.71875 46.519531 100.605469 L 46.078125 95.382812 C 45.617188 95.863281 45.128906 96.351562 44.59375 96.859375 "/>
<path style=" stroke:none;fill-rule:nonzero;fill:rgb(4.313725%,4.705882%,4.313725%);fill-opacity:1;" d="M 74.542969 89.164062 L 71.285156 58.765625 L 71.285156 58.753906 C 70.757812 57.199219 69.953125 55.929688 68.828125 54.882812 C 67.773438 53.894531 66.417969 53.089844 64.6875 52.425781 C 62.039062 51.40625 58.644531 51.367188 54.871094 52.304688 C 51.640625 53.105469 48.230469 54.601562 45.269531 56.511719 L 45.246094 56.527344 L 45.246094 56.554688 L 45.113281 59.167969 L 45.109375 59.210938 L 45.152344 59.222656 C 51 60.921875 51.363281 67.652344 51.6875 73.585938 L 51.746094 74.671875 C 52.0625 80.152344 52.050781 84.230469 51.007812 87.628906 C 50.449219 89.441406 49.585938 91.097656 48.28125 92.820312 L 48.746094 97.269531 C 50.925781 94.355469 54.320312 91.058594 60.277344 89.582031 L 60.96875 89.40625 C 65.820312 88.195312 67.632812 87.742188 74.480469 89.21875 L 74.554688 89.238281 L 74.542969 89.164062 "/>
<path style=" stroke:none;fill-rule:nonzero;fill:rgb(4.313725%,4.705882%,4.313725%);fill-opacity:1;" d="M 41.722656 52.738281 C 41.636719 51.992188 42.316406 51.296875 43.246094 51.175781 C 44.175781 51.0625 45 51.570312 45.089844 52.3125 C 45.179688 53.054688 44.5 53.753906 43.566406 53.871094 C 42.640625 53.988281 41.8125 53.480469 41.722656 52.738281 Z M 43.960938 55.078125 C 44.035156 55.070312 44.105469 55.046875 44.179688 55.035156 L 49.449219 111.117188 L 50.910156 110.980469 L 45.605469 54.515625 C 46.601562 53.925781 47.210938 52.96875 47.089844 51.957031 C 46.90625 50.46875 45.210938 49.449219 43.300781 49.683594 C 41.390625 49.917969 39.992188 51.316406 40.175781 52.804688 C 40.28125 53.679688 40.917969 54.382812 41.804688 54.773438 L 46.914062 108.65625 L 47.679688 108.582031 L 42.597656 55.035156 C 43.027344 55.121094 43.488281 55.136719 43.960938 55.078125 "/>
</g>
</svg>
