<?xml version="1.0" encoding="UTF-8"?>
<svg version="1.1" viewBox="0 0 80 80" xmlns="http://www.w3.org/2000/svg">
<title>1 – Fundamentals/Logos/Clubs/Dortmund BVB</title>
<g fill="none" fill-rule="evenodd">
<rect width="80" height="80"/>
<g fill-rule="nonzero">
<circle id="b" transform="translate(39.999 40) rotate(-45) translate(-39.999 -40)" cx="39.999" cy="40" r="28.257" fill="#FFE600"/>
<circle transform="translate(39.999 40) rotate(-45) translate(-39.999 -40)" cx="39.999" cy="40" r="26.899" fill="#000"/>
<path id="Path" d="m14.594 40c0-14.031 11.375-25.405 25.406-25.405s25.405 11.374 25.405 25.405-11.375 25.405-25.405 25.405-25.406-11.374-25.406-25.405z" fill="#FFE600"/>
<path id="Path" d="m44.157 61.647c-1.8763 0-3.2421-1.4198-3.2421-3.0418 0-0.23673-0.016954-0.3416-0.0056515-0.51177h1.7695c0.5124 0 0.43077 0.69451 0.43077 0.69451 0 0.53501 0.57771 0.77677 1.0135 0.7887 0.52998 0.014443 0.96138-0.47347 0.96138-1.0047l-0.0075353-1.0361c-0.33846 0.18399-1.0097 0.18022-1.0097 0.18022-1.6038-0.043956-3.1699-1.4273-3.1699-3.1397v-0.7617c0-1.7111 1.4593-3.0575 3.1699-3.0575h0.07033c1.7105 0 3.0386 1.3859 3.0386 3.0964v4.6706c0 1.7582-1.2465 3.1046-3.0192 3.1228z" fill="#000"/>
<rect x="43.118" y="52.966" width="1.9661" height="2.5495" rx=".98305" fill="#FFE600"/>
<path id="c" d="m24.772 46.61v-4.9557h2.8885c2.3906 0 3.244 4.341 0.13689 4.9557h-3.0254zm0-8.7284v-4.7316h3.2653c2.1174 0 2.552 4.0816 0.12559 4.7303l-3.3909 0.0012559zm-3.8932-8.6549v21.093l6.6455 0.0069074c5.3608 0 8.0829-6.5049 4.3554-10.515-0.0073742-0.0087928-0.011381-0.019922-0.011303-0.031397 0-0.019466 0.026374-0.040188 0.026374-0.040188 3.0983-3.4995 1.8003-9.6458-3.9611-10.515l-7.0549 0.0012559z" fill="#000"/>
<path d="m52.223 46.61v-4.9557h2.8697c2.39 0 3.244 4.341 0.13626 4.9557h-3.006zm0-8.7284v-4.7316h3.2452c2.1168 0 2.5513 4.0816 0.12559 4.7303l-3.3708 0.0012559zm-3.9127-8.6562v21.095l6.6455 0.0069074c5.3614 0 8.0835-6.5049 4.3554-10.515-0.0073742-0.0087928-0.011381-0.019922-0.011303-0.031397 0-0.019466 0.027002-0.040188 0.027002-0.040188 3.0976-3.4995 1.8003-9.6458-3.9611-10.515h-7.0556z" fill="#000"/>
<path id="Path" d="m35.836 50.77h0.07033c1.7105 3.467e-4 3.097 1.3871 3.097 3.0976v4.6776c0 1.7105-1.3865 3.0973-3.097 3.0976h-0.07033c-1.7106-3.467e-4 -3.0973-1.387-3.0976-3.0976v-4.6776c3.467e-4 -1.7106 1.387-3.0973 3.0976-3.0976z" fill="#000"/>
<path id="a" d="m35.856 52.992h0.031397c0.53442 0 0.96766 0.43324 0.96766 0.96766v4.6468c0 0.53477-0.43352 0.96829-0.96829 0.96829h-0.030769c-0.53477 0-0.96829-0.43352-0.96829-0.96829v-4.6462c0-0.25681 0.10202-0.50309 0.28361-0.68468 0.18159-0.18159 0.42788-0.28361 0.68468-0.28361z" fill="#FFE600"/>
<polygon points="31.579 18.689 38.49 40.074 41.481 40.074 48.31 18.689 44.127 18.689 39.979 32.963 35.857 18.689" fill="#000"/>
</g>
</g>
</svg>
