<?xml version="1.0" encoding="UTF-8"?>
<svg version="1.1" viewBox="0 0 80 80" xmlns="http://www.w3.org/2000/svg">
<title>1 – Fundamentals/Logos/Clubs/Frankfurt SGE</title>
<g fill="none" fill-rule="evenodd">
<rect width="80" height="80"/>
<g transform="translate(11 11)">
<path id="Path" d="m29 0.47753c-15.752 0-28.522 12.77-28.522 28.522s12.77 28.522 28.522 28.522 28.522-12.77 28.522-28.522-12.77-28.522-28.522-28.522z" fill="#fff" fill-rule="nonzero"/>
<path id="a" d="m29 58c-7.7462 0-15.028-3.0166-20.506-8.4938-5.4778-5.4771-8.4938-12.76-8.4938-20.506s3.0166-15.028 8.4938-20.506c5.4771-5.4778 12.76-8.4938 20.506-8.4938s15.028 3.0166 20.506 8.4938c5.4778 5.4771 8.4938 12.76 8.4938 20.506s-3.0166 15.028-8.4938 20.506c-5.4771 5.4778-12.76 8.4938-20.506 8.4938zm0-57.045c-15.467 0-28.045 12.578-28.045 28.045s12.578 28.045 28.045 28.045 28.045-12.578 28.045-28.045-12.578-28.045-28.045-28.045z" fill="#E30613" fill-rule="nonzero"/>
<path d="m29 55.772c-14.762 0-26.772-12.01-26.772-26.772s12.009-26.772 26.772-26.772 26.772 12.009 26.772 26.772-12.01 26.772-26.772 26.772zm0-49.034c-12.275 0-22.262 9.9889-22.262 22.262s9.987 22.262 22.262 22.262 22.262-9.987 22.262-22.262-9.987-22.262-22.262-22.262z" fill="#E30613" fill-rule="nonzero"/>
<path id="Path" d="m40.013 30.19c0.94089 0.35896 3.2635 1.4629 7.1166 1.5982 2.5984 0.090867 3.625-1.5267 2.7711-1.8044-0.34284-0.11213-7.7598-2.2079-7.7598-2.2079s-0.91769-0.3596-0.23071-0.43242c0.68698-0.072822 3.7719-0.043822 5.0847-0.58 1.6066-0.65733 1.8889-2.108 1.5138-2.0886-3.2274 0.1682-6.2543 0.10891-6.4444 0.087l-0.054778-0.0083778s-0.35702-0.11922-0.038022-0.4002c0.35251-0.31062 2.6777-2.2498 3.1687-2.744 1.2805-1.2889 0.40987-3.1707 0.19656-2.9644-2.1376 2.0364-4.8978 3.6089-5.0628 3.6424s-0.11858-0.35316 0.010956-0.63027c0.12953-0.27711 0.86227-1.1168 1.0956-1.9978 0.62318-2.3361 0.464-3.8074-0.85389-4.3687-0.23909-0.10118-0.32802 0.031578-0.63736 0.75658-0.30933 0.725-0.43113 1.992-1.6111 2.4837-0.60256 0.25133-1.7187 1.2818-1.7355 1.693-0.016756 0.41116 0.23071 1.0562-0.087644 1.2754-0.25262 0.174-0.68118-0.13211-1.0562 0.17851s-1.4648 1.4126-1.845 1.6962c-0.38022 0.28356-1.1355 0.74176-1.6079 0.48011-1.0388-1.0227-0.53489-4.0297-0.53489-4.0297 0.24363 0.045209 0.49287 0.051733 0.73853 0.019333 1.0511-0.15402 1.1175-1.4004 0.97182-1.5628-0.11278 0.1334-0.32802 0.3364-0.87516 0.38667-0.42404 0.039311-0.53296-0.13404-0.62769-0.50976-0.088289-0.35187-0.14887-0.58 0.031578-1.209 0.18044-0.62898 0.81909-0.93702 1.1826-1.2283s0.17336-1.392 0.17336-1.392c-0.098477 0.20812-0.23286 0.39725-0.39698 0.55873-0.34864 0.32738-0.82553 0.23458-1.8438 0.17078-1.0182-0.0638-1.4397-0.45111-1.5989-0.64444-0.15918-0.19333-1.4932-0.050911-1.8773-0.034156-0.38409 0.016756-2.0158 0.32673-2.6248 0.5568-0.609 0.23007-1.4513 0.58-1.6756 0.76689-0.22427 0.18689-0.14629 0.35251-0.14629 0.35251l0.20493 0.55293s0.75271-0.52844 1.4977-0.72758c0.74498-0.19913 0.83262 0.14049 0.92736 0.46078 0.076808 0.22899 0.13457 0.46394 0.17271 0.70244-0.2784 0.11922-1.3791 0.21202-2.3735 0.15918-1.1536-0.061222-1.2199-0.57033-1.2032-0.86742 0.0058-0.10698-0.3364 0.0058-0.46787 0.29709-0.23136 0.51556-0.29902 1.3856 2.0693 1.3533 0.94089-0.013533 1.818-0.36218 2.0944-0.464 0.1856 0.62318-0.026422 0.72436-0.29193 0.77011-1.14 0.1972-1.7271-0.099889-1.7271-0.099889s-0.16111 0.51556-0.043178 0.60127c0.68311 0.51556 2.0719 0.52007 2.32 0.49944 0.24811-0.020622 0.44338-0.18044 0.58-0.064444s0.31062 0.69729 0.33318 0.88933c0.022556 0.19204-0.036089 0.32738-0.61093 0.31256-0.57484-0.014822-0.79396 0.0064444-0.76947 0.11664s0.64122 0.59224 0.7482 0.70438 0.69858-0.50589 0.69858-0.50589-0.030289 0.085067 0.018044 0.33318c0.048333 0.24811 0.21396 2.2059-1.004 2.7711-0.47238 0.26164-1.2244-0.19333-1.6072-0.48011s-1.4745-1.3881-1.8528-1.6994c-0.37829-0.31127-0.80298-0.0045111-1.0562-0.17851-0.31771-0.21911-0.070889-0.8642-0.087644-1.2754-0.016756-0.41116-1.1329-1.4416-1.7355-1.693-1.1793-0.49171-1.3005-1.7593-1.6111-2.4837-0.31062-0.72436-0.39827-0.85776-0.63736-0.75658-1.3179 0.56131-1.4771 2.0326-0.85389 4.3687 0.23587 0.88353 0.96667 1.7232 1.0956 1.9978 0.12889 0.27453 0.17464 0.66184 0.010956 0.63027-0.16369-0.031578-2.9251-1.606-5.0621-3.6424-0.21331-0.20364-1.0846 1.6756 0.19333 2.9644 0.49107 0.49429 2.8162 2.4334 3.1687 2.744 0.32222 0.28098-0.037378 0.4002-0.037378 0.4002l-0.055422 0.0083778c-0.19333 0.021911-3.2222 0.0812-6.4444-0.087-0.37507-0.019333-0.0928 1.4313 1.5138 2.0886 1.3127 0.53682 4.3977 0.50782 5.0847 0.58 0.68698 0.072178-0.23007 0.43242-0.23007 0.43242s-7.4163 2.097-7.7578 2.2079c-0.85582 0.27904 0.17013 1.8966 2.7711 1.8044 3.8538-0.13533 6.1757-1.2393 7.1166-1.5982 0.94089-0.35896 0.38022 0.30224 0.1798 0.44273-1.3946 0.9802-5.499 3.7694-7.4401 5.017-0.2784 0.17916-0.31771 0.37829 0 0.71276 1.5202 1.6163 4.3983-0.23522 5.5364-0.86871 1.3276-0.73853 4.4892-3.1249 4.7347-2.8652 0.096022 0.10118-0.086356 0.99309-2.0352 3.0811 0.20595 0.19885 0.42397 0.3848 0.65282 0.5568 0 0-0.93316 1.1291-1.5718 1.827-0.25778 0.28227-0.8584 0.87967-1.0221 0.84809-0.16369-0.031578-1.004-0.93896-1.2889-0.95507-0.17916-0.010311-0.56711 0.26809-0.85582 0.1044-0.17336-0.097956-0.70889-0.045756-1.1542 0.16176-0.44531 0.20751-0.36153 1.2502-0.23973 0.78816 0.1218-0.46207 1.0066-0.44789 1.45 0.064444 0.1392 0.16176 0.56647 0.48011 0.83778 0.54262s0.40664 0.14758 0.29516 0.2262c-0.11149 0.078622-0.84164 0.2494-1.4481 0.68698-0.12889 0.21847-0.059933 0.29838-0.10956 0.40729-0.67602 0.23909-0.83778 0.44789-0.6264 1.1239 0.019978 0.064444 0.010311 0.079267 0.21847 0.50138 0.099889-0.18367 0.050267-0.77978 0.68633-0.91898 0.064444-0.014822 0.17916 0.079267 0.29838 0.079267 0.26422 0 1.2199-0.55422 1.3901-0.76882 0.17013-0.2146 0.12889 0.12309 0.018689 0.32931-0.53038 0.99438-0.33704 1.5989-0.28871 1.613 0.12244 0.044467 0.18882-0.045111 0.27002 0.14436 0.32996 0.96667 1.3018 1.5467 1.142 1.3759-0.15982-0.17078-0.3944-1.4455-0.29516-1.4951 0.099244-0.049622 0.17916 0.019333 0.29838-0.050267 0.11922-0.0696 0.26551-0.62382 0.25778-0.79524-0.016756-0.41116-0.24102-0.53876-0.23458-0.78493 0.0064445-0.24618 0.17787-0.51556 0.17787-0.51556s0.28484 0.55293 0.52651 0.80749c0.49493 0.52264 0.40536 0.64444 0.9222 0.43371 0.1044-0.042533 0.7946 1.0904 0.7946 1.0904s0.2494-0.6032 0.13727-1.0369c-0.050267-0.19333-0.23973-0.28033-0.37184-0.45111-0.13211-0.17078 0.23522-0.38151 0.056711-0.6496-0.99889-0.95507-1.0923-0.62833-1.3488-1.2515-0.17271-0.41889 0.16433-0.70438 0.51556-1.1252 0.87322-1.0453 0.90544-1.0382 1.421-1.6543 0.21524 0.14242 0.33769 0.2784 0.63607 0.49687 0.97504-1.4313 1.8083-2.7234 2.7208-3.0585 0.91253-0.33511 1.3243 0.19656 1.2998 0.75013-0.043822 0.97633-1.9978 3.0772-1.9978 3.0772-0.88869 0.9918-1.5364 1.5164-1.9076 2.1628-0.15995 0.27866-0.2668 0.58458-0.31513 0.90222-0.059289 0.36089 0.0064444 0.8816 0.085067 1.3056 0.0754 0.40858 0.1624 0.72693 0.1624 0.72693s0.29322-1.0479 0.35896-1.1742c0.1856-0.35767 0.22491 0 0.50331 0.70309s0.86613 1.5892 0.86613 1.5892l-0.0090222-1.7974c0.029-0.46593 0.061222-1.0956 0.27002-0.62704s0.88676 1.4687 0.88676 1.4687 0.0096667-0.36669 0.036733-0.80878h-0.0051555 0.0051555c0.025133-0.406 0.3422-1.8934 0.50976-2.2001h-0.0083778 0.0083778c0.14307-0.26358 0.77784-1.3714 1.5467-1.488 0.76882-0.11664 0.83778 1.2554 0.783 1.5505-0.10182 0.5626-0.30933 1.2174-0.4234 1.4481-0.072178 0.14629-0.67731 1.2889-0.75529 1.5041-0.82167 2.2936 0.8932 3.6843 0.89642 3.5747 0.0032222-0.10956 0.20429-1.6923 0.46529-2.0732 0.15467-0.2262 0.36991-0.37378 0.52844-0.1508 0.22362 0.31513 0.70889 1.3849 1.4036 2.1189 0.69342-0.73402 1.1793-1.8044 1.403-2.1189 0.15853-0.22298 0.37442-0.0754 0.52909 0.1508 0.261 0.38087 0.46207 1.9643 0.46464 2.0732s1.7181-1.2812 0.89642-3.5747c-0.077978-0.21718-0.68311-1.3578-0.75529-1.5041-0.11407-0.23071-0.32222-0.88547-0.4234-1.4481-0.053489-0.29516 0.012889-1.6678 0.783-1.5505 0.77011 0.11729 1.4042 1.2244 1.5467 1.488h0.0083778-0.0083778c0.16756 0.30676 0.48527 1.7941 0.5104 2.2001h0.0051556-0.0051556c0.027067 0.44209 0.036733 0.80878 0.036733 0.80878s0.67796-1.0034 0.88676-1.47 0.24167 0.16111 0.27002 0.62704l-0.0058 1.7993s0.58709-0.88676 0.86549-1.5892c0.2784-0.70244 0.31771-1.0608 0.50331-0.70309 0.064444 0.12889 0.35896 1.1742 0.35896 1.1742s0.087644-0.31836 0.16304-0.72693c0.077978-0.42404 0.14371-0.94476 0.085067-1.3056-0.048546-0.31768-0.15562-0.6236-0.31578-0.90222-0.3712-0.64444-1.0189-1.171-1.9069-2.1628 0 0-1.9565-2.1009-1.9978-3.0772-0.025133-0.55358 0.38667-1.0872 1.2992-0.75013 0.91253 0.33704 1.7471 1.6272 2.7215 3.0585 0.29838-0.21847 0.42082-0.35444 0.63607-0.49687 0.51556 0.61609 0.54713 0.60642 1.4223 1.6601 0.34929 0.42082 0.68569 0.70889 0.51556 1.1252-0.25778 0.62318-0.34929 0.29644-1.3482 1.2515-0.17916 0.26809 0.18882 0.4814 0.056067 0.6496-0.13276 0.1682-0.32222 0.25778-0.3712 0.45111-0.11278 0.43371 0.13662 1.0369 0.13662 1.0369s0.68247-1.1368 0.78558-1.0943c0.51556 0.2088 0.42791 0.088933 0.92284-0.43371 0.24102-0.25456 0.52651-0.80749 0.52651-0.80749s0.17142 0.26938 0.17787 0.51556c0.0064445 0.24618-0.21847 0.37378-0.23522 0.78493-0.0070889 0.17142 0.1392 0.72564 0.25778 0.79524s0.19913 0 0.29838 0.050267c0.099244 0.050267-0.13469 1.3269-0.29451 1.4951-0.15982 0.1682 0.81136-0.4118 1.1413-1.3759 0.0812-0.18947 0.14758-0.099889 0.27002-0.14436 0.0464-0.016756 0.24553-0.62124-0.28871-1.6079-0.11149-0.20622-0.1508-0.54391 0.018689-0.32931s1.1265 0.76882 1.3901 0.76882c0.11922 0 0.23136-0.094089 0.29838-0.079267 0.63671 0.1392 0.58644 0.73531 0.68633 0.91898 0.2088-0.42211 0.19849-0.43693 0.21847-0.50138 0.2088-0.67602 0.049622-0.88482-0.6264-1.1239-0.049622-0.10891 0.019978-0.18882-0.10956-0.40729-0.60642-0.43758-1.3462-0.6148-1.4481-0.68698-0.10182-0.072178 0.0232-0.16433 0.29516-0.2262 0.27196-0.061867 0.69987-0.38087 0.83778-0.54262 0.44273-0.51556 1.3282-0.5278 1.4494-0.064444 0.12116 0.46336 0.20429-0.58-0.23973-0.78816-0.44402-0.20816-0.98084-0.25778-1.1542-0.16176-0.28871 0.16369-0.67667-0.11471-0.85518-0.1044-0.28678 0.016111-1.1271 0.92349-1.2889 0.95507-0.16176 0.031578-0.76367-0.56582-1.0221-0.84809-0.638-0.69793-1.5718-1.827-1.5718-1.827 0.22885-0.172 0.44687-0.35795 0.65282-0.5568-1.9488-2.088-2.1312-2.9799-2.0352-3.0811 0.24553-0.25778 3.4072 2.1267 4.7354 2.8652 1.1381 0.63349 4.0155 2.485 5.5358 0.86871 0.31513-0.33447 0.27518-0.5336-0.0032222-0.71276-1.9404-1.2476-6.0449-4.0368-7.4401-5.017-0.20042-0.14049-0.76044-0.80169 0.1798-0.44273l0.0019333-6.445e-4z" fill="#E30613"/>
<path id="Path" d="m32.579 10.118c-0.027067 0-2.1176 0.89578-2.3052 1.0376-0.36282-0.31256-1.4178-1.2534-1.5402-1.3598v-0.010311l-0.0058 0.0051556-0.0058-0.0051556v0.010311c-0.11922 0.10633-1.1774 1.0472-1.5396 1.3598-0.18818-0.14178-2.2781-1.0363-2.3058-1.0376 0 0 0.58773 0.87902 0.95184 1.4822 0.37313 0.61673 0.29 1.459 0.29 1.459h5.22s-0.083133-0.841 0.28936-1.459c0.36411-0.60191 0.9512-1.4822 0.9512-1.4822z" fill="#E30613" fill-rule="nonzero"/>
<path id="Path" d="m27.019 15.699c0.49588-0.24095 1.0622-0.29429 1.5944-0.15016l-1.3475 1.0878s-0.24102-0.73209-0.2494-0.93767h0.0025778z" fill="#fff" fill-rule="nonzero"/>
<path id="Path" d="m32.919 27.965c1.1935-0.21138 2.7486-0.59353 4.3906-3.4723-1.557-0.29451-1.8193-1.0782-1.8193-1.0782s0.84487-0.22298 2.0261 0.71404c0.064444-2.001 1.2354-2.32 1.2354-2.32h0.0038667s0.49622 1.1078-1.0111 2.4315c1.4822 0.31578 1.845 1.113 1.845 1.113s-0.78558 0.28227-1.9881-0.71984c-1.7916 3.2622-3.7378 3.9685-4.6825 3.9685 0.039311-0.42404-0.0070889-0.53038 0-0.63607v-6.445e-4z" fill="#fff" fill-rule="nonzero"/>
<path id="Path" d="m26.314 25.956c0.033624 1.1731 0.15838 2.3417 0.37313 3.4955 0.42147 2.2111 1.1046 3.6418 1.6234 4.4724 0.19547 0.32505 0.41703 0.63368 0.66249 0.92284v0.012244l0.0058-0.0064444 0.0058 0.0064444v-0.013533c0.24481-0.2893 0.46552-0.59816 0.65991-0.92349 0.51556-0.83069 1.2019-2.2614 1.6234-4.4724 0.21506-1.1531 0.34025-2.3211 0.37442-3.4935-0.018044 0.018689-5.3115 0.018689-5.3296 0h0.0012889z" fill="#fff"/>
<path id="b" d="m25.039 27.965c-1.1942-0.21138-2.7492-0.59353-4.3912-3.4723 1.557-0.29451 1.8193-1.0782 1.8193-1.0782s-0.84487-0.22298-2.0261 0.71404c-0.064444-2.001-1.2354-2.32-1.2354-2.32h-0.0032222s-0.49622 1.1078 1.0105 2.4315c-1.4822 0.31578-1.845 1.113-1.845 1.113s0.78622 0.28227 1.9888-0.71984c1.7909 3.2622 3.7378 3.9685 4.6825 3.9685-0.039956-0.42404 0.0064445-0.53038 0-0.63607v-6.445e-4z" fill="#fff" fill-rule="nonzero"/>
<polygon points="30.448 31.667 30.448 30.969 28.731 30.969 28.731 29.642 30.263 29.642 30.263 28.944 28.731 28.944 28.731 27.825 30.252 27.825 30.252 27.127 27.698 27.127 27.698 31.667 30.448 31.667" fill="#E30613" fill-rule="nonzero"/>
</g>
</g>
</svg>
