<?xml version="1.0" encoding="UTF-8"?>
<svg version="1.1" viewBox="0 0 80 80" xmlns="http://www.w3.org/2000/svg">
<title>1 – Fundamentals/Logos/Clubs/Fürth SGF</title>
<g fill="none" fill-rule="evenodd">
<rect width="80" height="80"/>
<g transform="translate(11 11)" fill-rule="nonzero">
<path id="a" d="m0 29c0-16.016 12.984-29 29-29s29 12.984 29 29-12.984 29-29 29-29-12.984-29-29z" fill="#fff"/>
<path d="m3.7378 29c0 13.951 11.309 25.262 25.262 25.262s25.262-11.311 25.262-25.262-11.311-25.262-25.262-25.262-25.262 11.311-25.262 25.262zm-2.8736 0c0.0025778-15.538 12.598-28.133 28.136-28.133s28.133 12.596 28.133 28.133-12.596 28.133-28.133 28.133-28.133-12.596-28.133-28.133h-0.0025778z" fill="#009932"/>
<path d="m24.643 26.701c0.28936-0.38667 0.54262-0.76496-1.4629-2.648-2.4631-2.3129-6.603-6.4728-3.9517-11.44 2.2272-4.1734 6.5959-1.9739 6.5959-1.9739s3.0598 2.2278 5.577 0.38087c2.5172-1.847 6.2511-0.60642 6.9168 1.6569s1.1774 5.6363-2.041 8.9861c-3.2184 3.3498-5.0267 4.6858-3.4723 5.3238 0.59096 0.24231 1.497-0.76818 1.8786-1.4983 0.41631-0.79718 3.2506-3.0566 6.2788-4.4596 3.0282-1.403 5.6711 0.28098 5.9579 0.53876 0.28678 0.25778 2.1363 2.0416 1.1175 6.6951-0.98664 2.1009-0.82811 3.1217-0.82811 3.1217s-0.12889 1.9739 0.76496 3.4091c0.89384 1.4352 0.85582 5.6408-1.9146 6.5959-2.7705 0.95507-6.0578 0.82424-7.9988-0.57484s-4.9435-5.7078-5.4823-6.4058c-0.53876-0.69793-1.1181-1.7774-2.483-2.0674 0.25778 2.1009-0.25327 5.0976-0.38022 5.8644-0.12696 0.76689-1.0227 3.3137-2.01 5.4185-0.98729 2.1048-1.0182 2.1363-2.4218 2.3587-1.4036 0.22233-4.2276 1.0053-4.7167 1.209-0.35187 0.14629-1.3404-0.12309-1.5937-0.5394s0.22169-0.76109 0.60642-0.95507c0.38473-0.19398 7.6476-4.6271 7.6805-12.975 0-1.3044-0.70116-0.82876-1.276-0.28549-0.57484 0.54327-1.8199 1.5022-5.5139 6.0578-3.694 4.5556-9.1511 2.929-9.5294 2.802-0.37829-0.12696-3.7932-1.1175-2.5488-6.9168 1.0169-2.2285 1.1458-2.8388 1.2103-3.3144 0.064444-0.4756 0.12309-1.4352-0.25778-2.3902-0.38087-0.95507-1.5583-3.4407-0.38087-5.6711 1.1774-2.2304 4.3397-3.904 8.5067-1.5621 2.5546 1.4358 3.9898 3.277 4.8494 4.2069s1.6253 1.7561 2.3232 1.0543v-0.0019333z" fill="#009932"/>
</g>
</g>
</svg>
